Coordinates
version=1
nRows=7
nColumns=40
inDegrees=yes

Units are S.I. units (second, meters, Newtons, ...)
If the header above contains a line with 'inDegrees', this indicates whether rotational values are in degrees (yes) or radians (no).

endheader
time	pelvis_tilt	pelvis_list	pelvis_rotation	pelvis_tx	pelvis_ty	pelvis_tz	hip_flexion_r	hip_adduction_r	hip_rotation_r	knee_angle_r	knee_angle_r_beta	ankle_angle_r	subtalar_angle_r	mtp_angle_r	hip_flexion_l	hip_adduction_l	hip_rotation_l	knee_angle_l	knee_angle_l_beta	ankle_angle_l	subtalar_angle_l	mtp_angle_l	lumbar_extension	lumbar_bending	lumbar_rotation	arm_flex_r	arm_add_r	arm_rot_r	elbow_flex_r	pro_sup_r	wrist_flex_r	wrist_dev_r	arm_flex_l	arm_add_l	arm_rot_l	elbow_flex_l	pro_sup_l	wrist_flex_l	wrist_dev_l
      5.89500000	    -11.11789614	      4.86407819	     -0.04978554	     -0.22415229	      1.23864576	     -0.89209972	     15.94682123	    -10.24962805	    -26.83490345	      2.64952308	      0.04624290	    -38.56954974	      0.00000000	      0.00000000	     17.60572560	     -4.14343841	    -27.88805532	      7.79014583	      0.13596369	    -38.51975283	      0.00000000	      0.00000000	    -11.37064962	     -4.74585875	     -6.37238297	    -26.88944937	    -52.95239358	     35.22145236	    104.20436450	     87.58840445	      0.00000000	      0.00000000	    -41.74955766	    -50.85635818	     24.11660062	    103.65723483	     88.07373802	      0.00000000	      0.00000000
      5.90000000	    -11.00933708	      4.73574475	     -0.06866759	     -0.22432735	      1.24742334	     -0.89184522	     16.03653932	    -10.07038120	    -26.13705648	      3.13030879	      0.05463420	    -38.63231580	      0.00000000	      0.00000000	     17.60884668	     -4.19256908	    -26.47880314	      7.90349538	      0.13794202	    -38.63783274	      0.00000000	      0.00000000	    -11.34857641	     -4.66193145	     -6.34472184	    -25.98571994	    -53.15724186	     36.27256559	    103.88905245	     87.57037161	      0.00000000	      0.00000000	    -41.04276335	    -51.03943482	     24.99939134	    103.31722928	     88.06033934	      0.00000000	      0.00000000
      5.90500000	    -10.91564039	      4.62827030	     -0.10137176	     -0.22441753	      1.25588961	     -0.89149304	     16.15956077	     -9.91376948	    -25.36906464	      3.65799791	      0.06384411	    -38.71682551	      0.00000000	      0.00000000	     17.61331737	     -4.24099918	    -24.96816737	      8.03217882	      0.14018797	    -38.66193633	      0.00000000	      0.00000000	    -11.31562242	     -4.61407585	     -6.28367997	    -25.26777638	    -53.27662639	     37.12468336	    103.57159610	     87.57120516	      0.00000000	      0.00000000	    -40.35768188	    -51.17553872	     25.76058801	    102.96257037	     88.04720078	      0.00000000	      0.00000000
      5.91000000	    -10.65091576	      4.46317333	     -0.09613792	     -0.22427000	      1.26418778	     -0.89115765	     16.04250800	     -9.72407127	    -24.77996269	      4.06461349	      0.07094089	    -38.72982493	      0.00000000	      0.00000000	     17.41619493	     -4.33765585	    -23.61362536	      8.11453474	      0.14162535	    -38.61324449	      0.00000000	      0.00000000	    -11.47412854	     -4.49705600	     -6.28953196	    -24.50404599	    -53.45421303	     38.03823268	    103.28567223	     87.56889723	      0.00000000	      0.00000000	    -39.71989940	    -51.33142698	     26.62722893	    102.60489823	     88.04965635	      0.00000000	      0.00000000
      5.91500000	    -10.46932002	      4.47637695	     -0.14302240	     -0.22396865	      1.27196281	     -0.89073556	     16.04148970	     -9.71144197	    -24.20383893	      4.43178639	      0.07734926	    -38.75769611	      0.00000000	      0.00000000	     17.27483553	     -4.27036263	    -22.46876687	      8.13141363	      0.14191994	    -38.60303346	      0.00000000	      0.00000000	    -11.48607013	     -4.58327788	     -6.28479071	    -23.73725815	    -53.60323908	     39.02347773	    102.97827357	     87.55189441	      0.00000000	      0.00000000	    -39.12133497	    -51.52209675	     27.56395240	    102.22054933	     88.04702816	      0.00000000	      0.00000000
      5.92000000	    -10.23963145	      4.52685560	     -0.12368708	     -0.22353344	      1.27959013	     -0.89041304	     15.93052462	     -9.75015141	    -23.71574580	      4.63426187	      0.08088313	    -38.80681394	      0.00000000	      0.00000000	     17.08158036	     -4.17293442	    -21.58620410	      8.16162968	      0.14244731	    -38.61278125	      0.00000000	      0.00000000	    -11.54211671	     -4.70649882	     -6.40375902	    -22.85593960	    -53.77050563	     40.14441741	    102.68352490	     87.51367130	      0.00000000	      0.00000000	    -38.53195103	    -51.59872880	     28.43588134	    101.84080305	     88.01183152	      0.00000000	      0.00000000
      5.92500000	     -9.99955070	      4.44691920	     -0.03904865	     -0.22294686	      1.28697428	     -0.89016463	     15.70683190	     -9.65823997	    -23.31670675	      4.62266400	      0.08068071	    -38.76610199	      0.00000000	      0.00000000	     16.87469965	     -4.19772668	    -20.67827886	      8.17271647	      0.14264081	    -38.55538852	      0.00000000	      0.00000000	    -11.56618639	     -4.65072188	     -6.55235628	    -22.14604705	    -53.91187540	     41.04396589	    102.41064818	     87.50317369	      0.00000000	      0.00000000	    -38.00111807	    -51.69842589	     29.38720166	    101.44255983	     88.02888864	      0.00000000	      0.00000000
